# xmcd
#
# Track frame offsets:
#       150
#       8500
#       39077
#       60530
#       70846
#       95016
#       105999
#       136732
#       161509
#       182615
#       264540
#       279627
#       290755
#       301943
#       309689
#       329084
#
# Disc length: 4646 seconds
#
# Revision: 0
# Processed by: cddbd v1.5.2PL0 Copyright (c) Steve Scherf et al.
# Submitted via: WaveLab 6.11
#
DISCID=db122410
DTITLE=Pastor Hipolito - Alleluah Nas Alturas
DYEAR=1900
DGENRE=
TTITLE0=Alleluah Nas Alturas
TTITLE1=Seja Louvado
TTITLE2=O men Caracao
TTITLE3=Abba Pai
TTITLE4=Te Adoro Senhor
TTITLE5=As Minhas Lutas Sao Do Senhor
TTITLE6=Jesus E Komba Diame
TTITLE7=Alleluah Ao Nosso Deus
TTITLE8=Gloria Alleluah!
TTITLE9=Message
TTITLE10=En Venho Como Estou
TTITLE11=Vem Epirito Divino
TTITLE12=Mfumu Yesu Unfuila Nkenda
TTITLE13=Kembo Kembo
TTITLE14=O Meu Deus me Abencoara
TTITLE15=Tweya Tchila Chami
EXTD=
EXTT0=
EXTT1=
EXTT2=
EXTT3=
EXTT4=
EXTT5=
EXTT6=
EXTT7=
EXTT8=
EXTT9=
EXTT10=
EXTT11=
EXTT12=
EXTT13=
EXTT14=
EXTT15=
PLAYORDER=
